<svg xmlns="http://www.w3.org/2000/svg" viewBox="0 0 128 128">
  <path fill="#ffa000" d="M17.474 103.276L33.229 2.462a2.91 2.91 0 0 1 5.44-.924l16.294 30.39 6.494-12.366a2.91 2.91 0 0 1 5.15 0z"/>
  <path fill="#f57f17" d="M71.903 64.005L59.83 19.561a2.91 2.91 0 0 0-5.149 0l-37.21 83.715z" opacity=".12"/>
  <path fill="#ffca28" d="M110.526 103.276L98.51 28.604a2.913 2.913 0 0 0-4.962-1.6L17.474 103.276l42.108 23.625a5.82 5.82 0 0 0 5.685 0z"/>
  <path fill="#fff" d="M71.903 64.005L59.83 19.561a2.91 2.91 0 0 0-5.149 0l-37.21 83.715z" opacity=".2"/>
</svg>
