<svg xmlns="http://www.w3.org/2000/svg" viewBox="0 0 128 128"><path fill="#999" d="M97.905 67.885c-.174-18.8 15.334-27.84 16.031-28.275-8.721-12.763-22.316-14.508-27.15-14.718-11.564-1.17-22.565 6.812-28.428 6.812-5.838 0-14.869-6.64-24.426-6.462-12.572.183-24.16 7.31-30.637 18.565-13.061 22.667-3.344 56.27 9.381 74.679 6.221 9.004 13.641 19.114 23.39 18.76 9.381-.379 12.924-6.072 24.27-6.072 11.346 0 14.519 6.072 24.426 5.883 10.091-.168 16.473-9.172 22.646-18.203 7.138-10.448 10.077-20.565 10.246-21.091-.221-.098-19.664-7.552-19.849-29.958zM79.325 16.756C84.452 10.379 88.015 1.626 87.04 0 79.556 .343 70.447 5.168 65.145 11.397c-4.755 5.501-8.915 14.273-7.798 22.702 8.39.652 16.963-4.396 21.978-10.343z"/></svg>
