<svg xmlns="http://www.w3.org/2000/svg" viewBox="0 0 128 128">
  <path d="M93.809 57.953c-.219-3.858-.75-5.953-2.875-8.234l.047-.016c3.813-4.202 6.86-10.14 5.891-12.781-1.141-3.11-7.563-4.875-12.813-4.672a46.4 46.4 0 0 0-8.375 1.266c-2.859-1.938-6.375-3.094-10.094-3.234-.156-.008-.312-.016-.469-.016-4.094 0-7.875 1.391-10.703 3.828-1.094-.344-2.172-.641-3.219-.891-3.828-.906-7.344-1.203-9.906-.797-2.422.383-5.375 1.406-5.828 4.281-.656 4.172 4.297 9.188 7.906 12.156-1.547 2.734-2.438 5.984-2.406 9.469.031 3.422.906 6.563 2.375 9.203-1.734 1.547-5.437 5.25-6.094 8.875-.766 4.219.469 8.469 3.5 12.063 4.453 5.266 11.781 8.344 19.922 8.344.953 0 1.922-.047 2.891-.141 8.797-.844 16.234-5.234 19.828-11.453 1.391.297 2.953.484 4.656.484 3.203 0 6.078-.766 8.297-2.344 2.547-1.812 3.672-4.406 3.672-6.906-.004-4.953-3.558-10.492-6.203-14.484z" fill="#336791"/>
  <path d="M85.168 66.031c-1.766-1.406-3.453-.906-4.437-.531-.219.078-.422.172-.609.281.016-.562.031-1.125.016-1.703-.063-4.063-1.188-7.703-3.328-10.813 5.469-5.797 8.375-12 6.359-14.172-1.984-2.141-8.141-.75-13.578 3.016-2.344-1.281-5.063-2.016-7.969-2.109-3.219-.109-6.219.672-8.688 2.141C48.059 38.5 42.2 37.234 40.387 39.5c-1.781 2.234.688 8.234 5.875 13.781-1.453 2.453-2.313 5.328-2.281 8.5.031 3.172.859 5.984 2.281 8.344-.547.531-3.766 3.672-4.375 7.031-.656 3.609.281 7.156 2.953 10.313 3.953 4.672 10.563 7.406 17.844 7.406.813 0 1.641-.031 2.469-.109 7.938-.766 14.609-4.656 17.859-10.25.484.063.984.109 1.5.125 3.344.125 6.281-.687 8.141-2.281 1.812-1.547 2.531-3.594 2.531-5.469-.003-3.781-2.581-8.3-6.816-12.859z" fill="#fff"/>
  <path d="M68.559 89.891c-7.156.687-14.875-1.578-18.672-6.063-1.906-2.25-3.969-6.297-1.531-9.5 1.828-2.406 4.922-3.531 7.078-3.984-.5-1.203-.891-2.484-1.156-3.828-.313-1.578-.422-3.156-.344-4.688-1.859-1.031-5.562-3.562-7.672-7.281-1.547-2.734-2.953-7.328 1.578-9.328 2.672-1.172 7.031.609 10.437 3.219 2.281-2.297 5.453-3.734 9.016-3.734.156 0 .312 0 .469.016 3.828.156 7.297 1.734 9.656 4.297 3.141-2.016 7.172-3.297 9.625-2.625 3.547.969 2.375 5.5.203 9.125-1.281 2.141-3.141 4.281-5.078 5.938.344 1.172.578 2.391.688 3.641.156 1.828.063 3.563-.25 5.172l.109-.016c2.656 1.578 10.75 7.375 9.344 14.609-.563 2.891-2.781 5.172-7.219 5.172-.641 0-1.344-.047-2.094-.156-2.062 3.672-6.594 6.797-12.594 7.578-.625.063-1.266.109-1.906.125-.234.008-.469.016-.687.016z" fill="#336791"/>
</svg>
