<svg viewBox="148 0 24 32" xmlns="http://www.w3.org/2000/svg"><path d="m163.434 22.698c3.728 0 6.607-3.038 6.644-6.64-.259-1.573-.81-4.483-4.893-4.483-4.464 0-5.945 6.24-9.58 10.262-.295 2.288-2.458 4.335-5.163 4.678.664.694 2.136 1.067 3.894 1.067 3.22 0 7.118-.969 9.157-2.982-2.72.035-4.47-1.713-4.643-4.136 1.327 1.608 2.827 2.234 4.584 2.234" fill="#12abdb"/><path d="m171.528 15.793c-.081-4.187-2.074-7.72-5.145-10.54-2.332-2.13-5.103-3.747-8.008-4.965a28.877 28.877 0 0 0-.705-.287h-.001c-3.577 4.285-15.963 7.483-15.963 16.467 0 3.512 2.218 6.796 5.475 8.114 1.888.714 3.777.753 5.667.118 1.68-.552 3.062-1.594 4.211-2.864 3.638-4.022 5.118-10.26 9.581-10.26 4.084 0 4.634 2.907 4.895 4.481 0-.004-.002-.114-.007-.264" fill="#0070ad"/></svg>
